<svg width="14" height="14" viewBox="0 0 14 14" fill="none" xmlns="http://www.w3.org/2000/svg">
<path d="M10.3333 13.6668H1.16668C0.945663 13.6668 0.733702 13.579 0.577421 13.4227C0.421141 13.2664 0.333344 13.0545 0.333344 12.8335V6.28346C0.333346 6.06735 0.417307 5.85968 0.56751 5.7043L5.15084 0.954297C5.22857 0.873774 5.32172 0.809731 5.42473 0.765991C5.52774 0.72225 5.63851 0.699707 5.75043 0.699707C5.86234 0.699707 5.97311 0.72225 6.07613 0.765991C6.17914 0.809731 6.27229 0.873774 6.35001 0.954297L7.72584 2.3818L6.53168 3.54346L5.75001 2.73346L2.00001 6.6168V11.996H11.1667V12.8293C11.1672 12.9391 11.1461 13.0479 11.1044 13.1495C11.0628 13.2511 11.0015 13.3434 10.9241 13.4212C10.8466 13.4991 10.7546 13.5608 10.6532 13.603C10.5518 13.6451 10.4431 13.6668 10.3333 13.6668ZM11.1667 10.3335H9.50001V7.83346H7.00001V6.1668H9.50001V3.6668H11.1667V6.1668H13.6667V7.83346H11.1667V10.3335Z" fill="white"/>
</svg>
