
<svg xmlns="http://www.w3.org/2000/svg"
     class="svg-snoweb svg-theme-light"
     x="0"
     y="0"
     width="100%"
     height="100%"
     viewBox="0 0 100 100"
     preserveAspectRatio="xMidYMid meet"
>
    <defs>
        <style>

            .svg-fill-primary {
            fill: #090D49;
            }

            .svg-fill-secondary {
            fill: #65CDAE;
            }

            .svg-fill-tertiary {
            fill: #E5E7EB;
            }

            .svg-stroke-primary {
            stroke: #090D49;
            }

            .svg-stroke-secondary {
            stroke: #65CDAE;
            }

            .svg-stroke-tertiary {
            stroke: #E5E7EB;
            }
        </style>
    </defs>
    <path d="M82,49.996c0,3.74-.64,7.33-1.82,10.67-1.4,3.98-3.57,7.59-6.33,10.67-5.86,6.54-14.38,10.66-23.85,10.66s-17.99-4.12-23.85-10.66c-2.76-3.08-4.93-6.69-6.33-10.67-1.18-3.34-1.82-6.93-1.82-10.67H82Z"
          fill="#fcd000"/>
    <path d="M82,49.996H18c0-3.74,.64-7.32,1.82-10.66,1.4-3.98,3.57-7.59,6.32-10.67,5.87-6.55,14.38-10.67,23.86-10.67s17.99,4.12,23.86,10.67c2.75,3.08,4.92,6.69,6.32,10.67,1.18,3.34,1.82,6.92,1.82,10.66Z"
          fill="#004aac"/>
</svg>